<svg width="24" height="24" viewBox="0 0 24 24" fill="none" xmlns="http://www.w3.org/2000/svg">
<g id="heroicons-solid:menu-alt-2">
<g id="Group">
<path id="Vector" fill-rule="evenodd" clip-rule="evenodd" d="M3.60001 6.00005C3.60001 5.68179 3.72643 5.37656 3.95148 5.15152C4.17652 4.92648 4.48175 4.80005 4.80001 4.80005H19.2C19.5183 4.80005 19.8235 4.92648 20.0485 5.15152C20.2736 5.37656 20.4 5.68179 20.4 6.00005C20.4 6.31831 20.2736 6.62353 20.0485 6.84858C19.8235 7.07362 19.5183 7.20005 19.2 7.20005H4.80001C4.48175 7.20005 4.17652 7.07362 3.95148 6.84858C3.72643 6.62353 3.60001 6.31831 3.60001 6.00005ZM3.60001 12C3.60001 11.6818 3.72643 11.3766 3.95148 11.1515C4.17652 10.9265 4.48175 10.8 4.80001 10.8H19.2C19.5183 10.8 19.8235 10.9265 20.0485 11.1515C20.2736 11.3766 20.4 11.6818 20.4 12C20.4 12.3183 20.2736 12.6235 20.0485 12.8486C19.8235 13.0736 19.5183 13.2 19.2 13.2H4.80001C4.48175 13.2 4.17652 13.0736 3.95148 12.8486C3.72643 12.6235 3.60001 12.3183 3.60001 12ZM3.60001 18C3.60001 17.6818 3.72643 17.3766 3.95148 17.1515C4.17652 16.9265 4.48175 16.8 4.80001 16.8H12C12.3183 16.8 12.6235 16.9265 12.8485 17.1515C13.0736 17.3766 13.2 17.6818 13.2 18C13.2 18.3183 13.0736 18.6235 12.8485 18.8486C12.6235 19.0736 12.3183 19.2 12 19.2H4.80001C4.48175 19.2 4.17652 19.0736 3.95148 18.8486C3.72643 18.6235 3.60001 18.3183 3.60001 18Z" fill="#59597C"/>
</g>
</g>
</svg>
